# xmcd
# Track frame offsets:
# 150
# 19607
# 41240
# 58370
#
# Disc length: 1195 seconds
# Revision: 8
# Processed by: cddbd v1.5.2PL0 Copyright (c) Steve Scherf et al.
# Submitted via: VisiTrax 2.11.3.279 - For more info visit www.synapsa.com
#
DISCID=3304a904
DTITLE=Geri Halliwell - It's Raining Men
DYEAR=2001
DGENRE=Pop
TTITLE0=It's Raining Men - Album Version
TTITLE1=It's Raining Men - Bold and Beautiful Glamour Mix Edit
TTITLE2=It's Raining Men - Almighty Mix Edit
TTITLE3=It's Raining Men - D-Bop's Tall and Blonde Mix Edit
EXTD=
EXTT0=
EXTT1=
EXTT2=
EXTT3=
PLAYORDER=
